<svg xmlns="http://www.w3.org/2000/svg" width="980" height="560" viewBox="0 0 980 560">
<rect width="100%" height="100%" fill="#0d1117"/>
<style>text{font-family:ui-monospace,SFMono-Regular,Consolas,monospace;fill:#e6edf3}.muted{fill:#8b949e}.axis{stroke:#484f58;stroke-width:1}.grid{stroke:#21262d;stroke-width:1}.point{stroke:#e6edf3;stroke-width:1.2}</style>
<text x="24" y="34" font-size="22" font-weight="700">Execution processing profile — learned_page_mask</text>
<text x="24" y="58" font-size="13" class="muted">Pipeline count vs parameter sets/second; thread count is annotated at each measured shape.</text>
<line x1="92" y1="470" x2="940" y2="470" class="axis"/>
<line x1="92" y1="112" x2="92" y2="470" class="axis"/>
<line x1="92" y1="470.0" x2="940" y2="470.0" class="grid"/>
<text x="80" y="474.0" text-anchor="end" font-size="11">0.0</text>
<line x1="92" y1="407.7" x2="940" y2="407.7" class="grid"/>
<text x="80" y="411.7" text-anchor="end" font-size="11">1.6</text>
<line x1="92" y1="345.5" x2="940" y2="345.5" class="grid"/>
<text x="80" y="349.5" text-anchor="end" font-size="11">3.2</text>
<line x1="92" y1="283.2" x2="940" y2="283.2" class="grid"/>
<text x="80" y="287.2" text-anchor="end" font-size="11">4.9</text>
<line x1="92" y1="221.0" x2="940" y2="221.0" class="grid"/>
<text x="80" y="225.0" text-anchor="end" font-size="11">6.5</text>
<line x1="92" y1="158.7" x2="940" y2="158.7" class="grid"/>
<text x="80" y="162.7" text-anchor="end" font-size="11">8.1</text>
<line x1="92.0" y1="112" x2="92.0" y2="470" class="grid"/>
<text x="92.0" y="494" text-anchor="middle" font-size="11">1</text>
<line x1="233.3" y1="112" x2="233.3" y2="470" class="grid"/>
<text x="233.3" y="494" text-anchor="middle" font-size="11">2</text>
<line x1="374.7" y1="112" x2="374.7" y2="470" class="grid"/>
<text x="374.7" y="494" text-anchor="middle" font-size="11">4</text>
<line x1="516.0" y1="112" x2="516.0" y2="470" class="grid"/>
<text x="516.0" y="494" text-anchor="middle" font-size="11">8</text>
<line x1="657.3" y1="112" x2="657.3" y2="470" class="grid"/>
<text x="657.3" y="494" text-anchor="middle" font-size="11">16</text>
<line x1="798.7" y1="112" x2="798.7" y2="470" class="grid"/>
<text x="798.7" y="494" text-anchor="middle" font-size="11">32</text>
<line x1="940.0" y1="112" x2="940.0" y2="470" class="grid"/>
<text x="940.0" y="494" text-anchor="middle" font-size="11">64</text>
<text x="516.0" y="532" text-anchor="middle" font-size="13" class="muted">detector pipelines (log₂ scale)</text>
<text x="28" y="291.0" text-anchor="middle" font-size="13" class="muted" transform="rotate(-90 28 291.0)">parameter sets / second</text>
<path d="M 92.0 158.7 L 316.0 158.7 L 374.7 187.0 L 420.2 210.6 L 516.0 275.4 L 940.0 398.2" fill="none" stroke="#58a6ff" stroke-width="2.5"/>
<circle cx="92.0" cy="158.7" r="7" fill="#58a6ff" class="point"/>
<text x="100.0" y="150.7" text-anchor="start" font-size="10">384t</text>
<circle cx="316.0" cy="158.7" r="5" fill="#58a6ff" class="point"/>
<text x="324.0" y="150.7" text-anchor="start" font-size="10">128t</text>
<circle cx="374.7" cy="187.0" r="5" fill="#58a6ff" class="point"/>
<text x="382.7" y="179.0" text-anchor="start" font-size="10">96t</text>
<circle cx="420.2" cy="210.6" r="5" fill="#58a6ff" class="point"/>
<text x="428.2" y="202.6" text-anchor="start" font-size="10">76t</text>
<circle cx="516.0" cy="275.4" r="5" fill="#58a6ff" class="point"/>
<text x="524.0" y="267.4" text-anchor="start" font-size="10">48t</text>
<circle cx="940.0" cy="398.2" r="5" fill="#58a6ff" class="point"/>
<text x="948.0" y="390.2" text-anchor="start" font-size="10">6t</text>
<rect x="660" y="68" width="12" height="12" fill="#58a6ff"/>
<text x="680" y="78" font-size="11">192t — rh8-al319 (192 vCPU)</text>
</svg>
