<svg xmlns="http://www.w3.org/2000/svg" width="980" height="560" viewBox="0 0 980 560">
<rect width="100%" height="100%" fill="#0d1117"/>
<style>text{font-family:ui-monospace,SFMono-Regular,Consolas,monospace;fill:#e6edf3}.muted{fill:#8b949e}.axis{stroke:#484f58;stroke-width:1}.grid{stroke:#21262d;stroke-width:1}.point{stroke:#e6edf3;stroke-width:1.2}</style>
<text x="24" y="34" font-size="22" font-weight="700">Execution processing profile — multi_scale_radial_edge</text>
<text x="24" y="58" font-size="13" class="muted">Pipeline count vs parameter sets/second; thread count is annotated at each measured shape.</text>
<line x1="92" y1="470" x2="940" y2="470" class="axis"/>
<line x1="92" y1="112" x2="92" y2="470" class="axis"/>
<line x1="92" y1="470.0" x2="940" y2="470.0" class="grid"/>
<text x="80" y="474.0" text-anchor="end" font-size="11">0.0</text>
<line x1="92" y1="407.7" x2="940" y2="407.7" class="grid"/>
<text x="80" y="411.7" text-anchor="end" font-size="11">1.6</text>
<line x1="92" y1="345.5" x2="940" y2="345.5" class="grid"/>
<text x="80" y="349.5" text-anchor="end" font-size="11">3.2</text>
<line x1="92" y1="283.2" x2="940" y2="283.2" class="grid"/>
<text x="80" y="287.2" text-anchor="end" font-size="11">4.8</text>
<line x1="92" y1="221.0" x2="940" y2="221.0" class="grid"/>
<text x="80" y="225.0" text-anchor="end" font-size="11">6.4</text>
<line x1="92" y1="158.7" x2="940" y2="158.7" class="grid"/>
<text x="80" y="162.7" text-anchor="end" font-size="11">8.0</text>
<line x1="92.0" y1="112" x2="92.0" y2="470" class="grid"/>
<text x="92.0" y="494" text-anchor="middle" font-size="11">1</text>
<line x1="249.3" y1="112" x2="249.3" y2="470" class="grid"/>
<text x="249.3" y="494" text-anchor="middle" font-size="11">2</text>
<line x1="406.5" y1="112" x2="406.5" y2="470" class="grid"/>
<text x="406.5" y="494" text-anchor="middle" font-size="11">4</text>
<line x1="563.8" y1="112" x2="563.8" y2="470" class="grid"/>
<text x="563.8" y="494" text-anchor="middle" font-size="11">8</text>
<line x1="721.0" y1="112" x2="721.0" y2="470" class="grid"/>
<text x="721.0" y="494" text-anchor="middle" font-size="11">16</text>
<line x1="878.3" y1="112" x2="878.3" y2="470" class="grid"/>
<text x="878.3" y="494" text-anchor="middle" font-size="11">32</text>
<line x1="940.0" y1="112" x2="940.0" y2="470" class="grid"/>
<text x="940.0" y="494" text-anchor="middle" font-size="11">42</text>
<text x="516.0" y="532" text-anchor="middle" font-size="13" class="muted">detector pipelines (log₂ scale)</text>
<text x="28" y="291.0" text-anchor="middle" font-size="13" class="muted" transform="rotate(-90 28 291.0)">parameter sets / second</text>
<path d="M 249.3 158.7 L 341.3 193.3 L 457.1 253.4 L 590.5 323.5 L 673.9 356.8 L 760.0 386.3 L 940.0 427.6" fill="none" stroke="#58a6ff" stroke-width="2.5"/>
<circle cx="249.3" cy="158.7" r="7" fill="#58a6ff" class="point"/>
<text x="257.3" y="150.7" text-anchor="start" font-size="10">192t</text>
<circle cx="341.3" cy="193.3" r="5" fill="#58a6ff" class="point"/>
<text x="349.3" y="185.3" text-anchor="start" font-size="10">128t</text>
<circle cx="457.1" cy="253.4" r="5" fill="#58a6ff" class="point"/>
<text x="465.1" y="245.4" text-anchor="start" font-size="10">76t</text>
<circle cx="590.5" cy="323.5" r="5" fill="#58a6ff" class="point"/>
<text x="598.5" y="315.5" text-anchor="start" font-size="10">42t</text>
<circle cx="673.9" cy="356.8" r="5" fill="#58a6ff" class="point"/>
<text x="681.9" y="348.8" text-anchor="start" font-size="10">29t</text>
<circle cx="760.0" cy="386.3" r="5" fill="#58a6ff" class="point"/>
<text x="768.0" y="378.3" text-anchor="start" font-size="10">20t</text>
<circle cx="940.0" cy="427.6" r="5" fill="#58a6ff" class="point"/>
<text x="948.0" y="419.6" text-anchor="start" font-size="10">9t</text>
<rect x="660" y="68" width="12" height="12" fill="#58a6ff"/>
<text x="680" y="78" font-size="11">192t — rh8-al328 (192 vCPU)</text>
</svg>
