<svg xmlns="http://www.w3.org/2000/svg" width="980" height="560" viewBox="0 0 980 560">
<rect width="100%" height="100%" fill="#0d1117"/>
<style>text{font-family:ui-monospace,SFMono-Regular,Consolas,monospace;fill:#e6edf3}.muted{fill:#8b949e}.axis{stroke:#484f58;stroke-width:1}.grid{stroke:#21262d;stroke-width:1}.point{stroke:#e6edf3;stroke-width:1.2}</style>
<text x="24" y="34" font-size="22" font-weight="700">Execution processing profile — adaptive_radial_edge</text>
<text x="24" y="58" font-size="13" class="muted">Pipeline count vs parameter sets/second; thread count is annotated at each measured shape.</text>
<line x1="92" y1="470" x2="940" y2="470" class="axis"/>
<line x1="92" y1="112" x2="92" y2="470" class="axis"/>
<line x1="92" y1="470.0" x2="940" y2="470.0" class="grid"/>
<text x="80" y="474.0" text-anchor="end" font-size="11">0.0</text>
<line x1="92" y1="407.7" x2="940" y2="407.7" class="grid"/>
<text x="80" y="411.7" text-anchor="end" font-size="11">30.5</text>
<line x1="92" y1="345.5" x2="940" y2="345.5" class="grid"/>
<text x="80" y="349.5" text-anchor="end" font-size="11">61.0</text>
<line x1="92" y1="283.2" x2="940" y2="283.2" class="grid"/>
<text x="80" y="287.2" text-anchor="end" font-size="11">91.6</text>
<line x1="92" y1="221.0" x2="940" y2="221.0" class="grid"/>
<text x="80" y="225.0" text-anchor="end" font-size="11">122.1</text>
<line x1="92" y1="158.7" x2="940" y2="158.7" class="grid"/>
<text x="80" y="162.7" text-anchor="end" font-size="11">152.6</text>
<line x1="92.0" y1="112" x2="92.0" y2="470" class="grid"/>
<text x="92.0" y="494" text-anchor="middle" font-size="11">1</text>
<line x1="213.1" y1="112" x2="213.1" y2="470" class="grid"/>
<text x="213.1" y="494" text-anchor="middle" font-size="11">2</text>
<line x1="334.3" y1="112" x2="334.3" y2="470" class="grid"/>
<text x="334.3" y="494" text-anchor="middle" font-size="11">4</text>
<line x1="455.4" y1="112" x2="455.4" y2="470" class="grid"/>
<text x="455.4" y="494" text-anchor="middle" font-size="11">8</text>
<line x1="576.6" y1="112" x2="576.6" y2="470" class="grid"/>
<text x="576.6" y="494" text-anchor="middle" font-size="11">16</text>
<line x1="697.7" y1="112" x2="697.7" y2="470" class="grid"/>
<text x="697.7" y="494" text-anchor="middle" font-size="11">32</text>
<line x1="818.9" y1="112" x2="818.9" y2="470" class="grid"/>
<text x="818.9" y="494" text-anchor="middle" font-size="11">64</text>
<line x1="940.0" y1="112" x2="940.0" y2="470" class="grid"/>
<text x="940.0" y="494" text-anchor="middle" font-size="11">128</text>
<text x="516.0" y="532" text-anchor="middle" font-size="13" class="muted">detector pipelines (log₂ scale)</text>
<text x="28" y="291.0" text-anchor="middle" font-size="13" class="muted" transform="rotate(-90 28 291.0)">parameter sets / second</text>
<path d="M 92.0 464.8 L 213.1 458.8 L 284.0 455.4 L 334.3 448.5 L 373.3 445.2 L 405.1 442.3 L 432.1 435.9 L 455.4 429.8 L 476.0 429.3 L 494.4 418.5 L 511.1 415.8 L 526.3 414.9 L 540.3 404.7 L 553.2 399.9 L 565.3 403.1 L 576.6 390.3 L 587.2 388.4 L 597.2 391.3 L 606.6 380.8 L 615.6 376.4 L 624.1 379.6 L 632.2 369.4 L 640.0 366.2 L 647.4 371.6 L 654.6 358.4 L 661.4 357.5 L 668.0 363.8 L 674.4 350.5 L 680.5 350.5 L 686.4 356.6 L 692.2 343.7 L 697.7 342.5 L 703.1 348.3 L 708.3 338.8 L 713.4 338.8 L 718.3 346.1 L 723.1 334.8 L 727.7 336.1 L 732.3 341.3 L 736.7 330.6 L 741.0 330.6 L 745.2 336.1 L 749.4 329.1 L 753.4 329.1 L 757.3 333.4 L 761.1 327.6 L 764.9 329.1 L 768.6 332.0 L 772.2 326.1 L 775.7 326.1 L 779.2 327.6 L 782.6 326.1" fill="none" stroke="#58a6ff" stroke-width="2.5"/>
<circle cx="92.0" cy="464.8" r="5" fill="#58a6ff" class="point"/>
<text x="100.0" y="456.8" text-anchor="start" font-size="10">96t</text>
<circle cx="213.1" cy="458.8" r="5" fill="#58a6ff" class="point"/>
<text x="221.1" y="450.8" text-anchor="start" font-size="10">96t</text>
<circle cx="284.0" cy="455.4" r="5" fill="#58a6ff" class="point"/>
<text x="292.0" y="447.4" text-anchor="start" font-size="10">64t</text>
<circle cx="334.3" cy="448.5" r="5" fill="#58a6ff" class="point"/>
<text x="342.3" y="440.5" text-anchor="start" font-size="10">48t</text>
<circle cx="373.3" cy="445.2" r="5" fill="#58a6ff" class="point"/>
<text x="381.3" y="437.2" text-anchor="start" font-size="10">38t</text>
<circle cx="405.1" cy="442.3" r="5" fill="#58a6ff" class="point"/>
<text x="413.1" y="434.3" text-anchor="start" font-size="10">32t</text>
<circle cx="432.1" cy="435.9" r="5" fill="#58a6ff" class="point"/>
<text x="440.1" y="427.9" text-anchor="start" font-size="10">27t</text>
<circle cx="455.4" cy="429.8" r="5" fill="#58a6ff" class="point"/>
<text x="463.4" y="421.8" text-anchor="start" font-size="10">24t</text>
<circle cx="476.0" cy="429.3" r="5" fill="#58a6ff" class="point"/>
<text x="484.0" y="421.3" text-anchor="start" font-size="10">21t</text>
<circle cx="494.4" cy="418.5" r="5" fill="#58a6ff" class="point"/>
<text x="502.4" y="410.5" text-anchor="start" font-size="10">19t</text>
<circle cx="511.1" cy="415.8" r="5" fill="#58a6ff" class="point"/>
<text x="519.1" y="407.8" text-anchor="start" font-size="10">17t</text>
<circle cx="526.3" cy="414.9" r="5" fill="#58a6ff" class="point"/>
<text x="534.3" y="406.9" text-anchor="start" font-size="10">16t</text>
<circle cx="540.3" cy="404.7" r="5" fill="#58a6ff" class="point"/>
<text x="548.3" y="396.7" text-anchor="start" font-size="10">14t</text>
<circle cx="553.2" cy="399.9" r="5" fill="#58a6ff" class="point"/>
<text x="561.2" y="391.9" text-anchor="start" font-size="10">13t</text>
<circle cx="565.3" cy="403.1" r="5" fill="#58a6ff" class="point"/>
<text x="573.3" y="395.1" text-anchor="start" font-size="10">12t</text>
<circle cx="576.6" cy="390.3" r="5" fill="#58a6ff" class="point"/>
<text x="584.6" y="382.3" text-anchor="start" font-size="10">12t</text>
<circle cx="587.2" cy="388.4" r="5" fill="#58a6ff" class="point"/>
<text x="595.2" y="380.4" text-anchor="start" font-size="10">11t</text>
<circle cx="597.2" cy="391.3" r="5" fill="#58a6ff" class="point"/>
<text x="605.2" y="383.3" text-anchor="start" font-size="10">10t</text>
<circle cx="606.6" cy="380.8" r="5" fill="#58a6ff" class="point"/>
<text x="614.6" y="372.8" text-anchor="start" font-size="10">10t</text>
<circle cx="615.6" cy="376.4" r="5" fill="#58a6ff" class="point"/>
<text x="623.6" y="368.4" text-anchor="start" font-size="10">9t</text>
<circle cx="624.1" cy="379.6" r="5" fill="#58a6ff" class="point"/>
<text x="632.1" y="371.6" text-anchor="start" font-size="10">9t</text>
<circle cx="632.2" cy="369.4" r="5" fill="#58a6ff" class="point"/>
<text x="640.2" y="361.4" text-anchor="start" font-size="10">8t</text>
<circle cx="640.0" cy="366.2" r="5" fill="#58a6ff" class="point"/>
<text x="648.0" y="358.2" text-anchor="start" font-size="10">8t</text>
<circle cx="647.4" cy="371.6" r="5" fill="#58a6ff" class="point"/>
<text x="655.4" y="363.6" text-anchor="start" font-size="10">8t</text>
<circle cx="654.6" cy="358.4" r="5" fill="#58a6ff" class="point"/>
<text x="662.6" y="350.4" text-anchor="start" font-size="10">7t</text>
<circle cx="661.4" cy="357.5" r="5" fill="#58a6ff" class="point"/>
<text x="669.4" y="349.5" text-anchor="start" font-size="10">7t</text>
<circle cx="668.0" cy="363.8" r="5" fill="#58a6ff" class="point"/>
<text x="676.0" y="355.8" text-anchor="start" font-size="10">7t</text>
<circle cx="674.4" cy="350.5" r="5" fill="#58a6ff" class="point"/>
<text x="682.4" y="342.5" text-anchor="start" font-size="10">6t</text>
<circle cx="680.5" cy="350.5" r="5" fill="#58a6ff" class="point"/>
<text x="688.5" y="342.5" text-anchor="start" font-size="10">6t</text>
<circle cx="686.4" cy="356.6" r="5" fill="#58a6ff" class="point"/>
<text x="694.4" y="348.6" text-anchor="start" font-size="10">6t</text>
<circle cx="692.2" cy="343.7" r="5" fill="#58a6ff" class="point"/>
<text x="700.2" y="335.7" text-anchor="start" font-size="10">6t</text>
<circle cx="697.7" cy="342.5" r="5" fill="#58a6ff" class="point"/>
<text x="705.7" y="334.5" text-anchor="start" font-size="10">6t</text>
<circle cx="703.1" cy="348.3" r="5" fill="#58a6ff" class="point"/>
<text x="711.1" y="340.3" text-anchor="start" font-size="10">5t</text>
<circle cx="708.3" cy="338.8" r="5" fill="#58a6ff" class="point"/>
<text x="716.3" y="330.8" text-anchor="start" font-size="10">5t</text>
<circle cx="713.4" cy="338.8" r="5" fill="#58a6ff" class="point"/>
<text x="721.4" y="330.8" text-anchor="start" font-size="10">5t</text>
<circle cx="718.3" cy="346.1" r="5" fill="#58a6ff" class="point"/>
<text x="726.3" y="338.1" text-anchor="start" font-size="10">5t</text>
<circle cx="723.1" cy="334.8" r="5" fill="#58a6ff" class="point"/>
<text x="731.1" y="326.8" text-anchor="start" font-size="10">5t</text>
<circle cx="727.7" cy="336.1" r="5" fill="#58a6ff" class="point"/>
<text x="735.7" y="328.1" text-anchor="start" font-size="10">5t</text>
<circle cx="732.3" cy="341.3" r="5" fill="#58a6ff" class="point"/>
<text x="740.3" y="333.3" text-anchor="start" font-size="10">4t</text>
<circle cx="736.7" cy="330.6" r="5" fill="#58a6ff" class="point"/>
<text x="744.7" y="322.6" text-anchor="start" font-size="10">4t</text>
<circle cx="741.0" cy="330.6" r="5" fill="#58a6ff" class="point"/>
<text x="749.0" y="322.6" text-anchor="start" font-size="10">4t</text>
<circle cx="745.2" cy="336.1" r="5" fill="#58a6ff" class="point"/>
<text x="753.2" y="328.1" text-anchor="start" font-size="10">4t</text>
<circle cx="749.4" cy="329.1" r="5" fill="#58a6ff" class="point"/>
<text x="757.4" y="321.1" text-anchor="start" font-size="10">4t</text>
<circle cx="753.4" cy="329.1" r="5" fill="#58a6ff" class="point"/>
<text x="761.4" y="321.1" text-anchor="start" font-size="10">4t</text>
<circle cx="757.3" cy="333.4" r="5" fill="#58a6ff" class="point"/>
<text x="765.3" y="325.4" text-anchor="start" font-size="10">4t</text>
<circle cx="761.1" cy="327.6" r="5" fill="#58a6ff" class="point"/>
<text x="769.1" y="319.6" text-anchor="start" font-size="10">4t</text>
<circle cx="764.9" cy="329.1" r="5" fill="#58a6ff" class="point"/>
<text x="772.9" y="321.1" text-anchor="start" font-size="10">4t</text>
<circle cx="768.6" cy="332.0" r="5" fill="#58a6ff" class="point"/>
<text x="776.6" y="324.0" text-anchor="start" font-size="10">4t</text>
<circle cx="772.2" cy="326.1" r="7" fill="#58a6ff" class="point"/>
<text x="780.2" y="318.1" text-anchor="start" font-size="10">3t</text>
<circle cx="775.7" cy="326.1" r="5" fill="#58a6ff" class="point"/>
<text x="783.7" y="318.1" text-anchor="start" font-size="10">3t</text>
<circle cx="779.2" cy="327.6" r="5" fill="#58a6ff" class="point"/>
<text x="787.2" y="319.6" text-anchor="start" font-size="10">3t</text>
<circle cx="782.6" cy="326.1" r="5" fill="#58a6ff" class="point"/>
<text x="790.6" y="318.1" text-anchor="start" font-size="10">3t</text>
<rect x="660" y="68" width="12" height="12" fill="#58a6ff"/>
<text x="680" y="78" font-size="11">e7k — rh8-al97 (96 vCPU)</text>
<path d="M 92.0 460.5 L 455.4 396.5 L 640.0 284.1 L 727.7 202.3 L 768.6 185.2 L 772.2 185.2 L 795.5 165.8 L 804.6 172.5 L 807.6 158.7 L 810.5 172.5 L 818.9 158.7 L 829.5 185.2 L 857.9 191.1 L 860.0 165.8 L 862.2 196.8 L 889.7 191.1" fill="none" stroke="#3fb950" stroke-width="2.5"/>
<circle cx="92.0" cy="460.5" r="5" fill="#3fb950" class="point"/>
<text x="100.0" y="452.5" text-anchor="start" font-size="10">384t</text>
<circle cx="455.4" cy="396.5" r="5" fill="#3fb950" class="point"/>
<text x="463.4" y="388.5" text-anchor="start" font-size="10">48t</text>
<circle cx="640.0" cy="284.1" r="5" fill="#3fb950" class="point"/>
<text x="648.0" y="276.1" text-anchor="start" font-size="10">16t</text>
<circle cx="727.7" cy="202.3" r="5" fill="#3fb950" class="point"/>
<text x="735.7" y="194.3" text-anchor="start" font-size="10">10t</text>
<circle cx="768.6" cy="185.2" r="5" fill="#3fb950" class="point"/>
<text x="776.6" y="177.2" text-anchor="start" font-size="10">8t</text>
<circle cx="772.2" cy="185.2" r="5" fill="#3fb950" class="point"/>
<text x="780.2" y="177.2" text-anchor="start" font-size="10">7t</text>
<circle cx="795.5" cy="165.8" r="5" fill="#3fb950" class="point"/>
<text x="803.5" y="157.8" text-anchor="start" font-size="10">6t</text>
<circle cx="804.6" cy="172.5" r="5" fill="#3fb950" class="point"/>
<text x="812.6" y="164.5" text-anchor="start" font-size="10">6t</text>
<circle cx="807.6" cy="158.7" r="7" fill="#3fb950" class="point"/>
<text x="815.6" y="150.7" text-anchor="start" font-size="10">6t</text>
<circle cx="810.5" cy="172.5" r="5" fill="#3fb950" class="point"/>
<text x="818.5" y="164.5" text-anchor="start" font-size="10">6t</text>
<circle cx="818.9" cy="158.7" r="5" fill="#3fb950" class="point"/>
<text x="826.9" y="150.7" text-anchor="start" font-size="10">6t</text>
<circle cx="829.5" cy="185.2" r="5" fill="#3fb950" class="point"/>
<text x="837.5" y="177.2" text-anchor="start" font-size="10">5t</text>
<circle cx="857.9" cy="191.1" r="5" fill="#3fb950" class="point"/>
<text x="865.9" y="183.1" text-anchor="start" font-size="10">4t</text>
<circle cx="860.0" cy="165.8" r="5" fill="#3fb950" class="point"/>
<text x="868.0" y="157.8" text-anchor="start" font-size="10">4t</text>
<circle cx="862.2" cy="196.8" r="5" fill="#3fb950" class="point"/>
<text x="870.2" y="188.8" text-anchor="start" font-size="10">4t</text>
<circle cx="889.7" cy="191.1" r="5" fill="#3fb950" class="point"/>
<text x="897.7" y="183.1" text-anchor="start" font-size="10">4t</text>
<rect x="660" y="86" width="12" height="12" fill="#3fb950"/>
<text x="680" y="96" font-size="11">192t — rh8-al323 (192 vCPU)</text>
<path d="M 697.7 239.2 L 813.3 179.0 L 816.1 172.5 L 818.9 185.2 L 940.0 212.6" fill="none" stroke="#d29922" stroke-width="2.5"/>
<circle cx="697.7" cy="239.2" r="5" fill="#d29922" class="point"/>
<text x="705.7" y="231.2" text-anchor="start" font-size="10">12t</text>
<circle cx="813.3" cy="179.0" r="5" fill="#d29922" class="point"/>
<text x="821.3" y="171.0" text-anchor="start" font-size="10">6t</text>
<circle cx="816.1" cy="172.5" r="7" fill="#d29922" class="point"/>
<text x="824.1" y="164.5" text-anchor="start" font-size="10">6t</text>
<circle cx="818.9" cy="185.2" r="5" fill="#d29922" class="point"/>
<text x="826.9" y="177.2" text-anchor="start" font-size="10">6t</text>
<circle cx="940.0" cy="212.6" r="5" fill="#d29922" class="point"/>
<text x="948.0" y="204.6" text-anchor="start" font-size="10">3t</text>
<rect x="660" y="104" width="12" height="12" fill="#d29922"/>
<text x="680" y="114" font-size="11">192t — rh8-al321 (192 vCPU)</text>
<path d="M 455.4 394.8 L 576.6 332.0 L 615.6 321.3 L 624.1 319.6 L 632.2 317.9 L 640.0 319.6 L 647.4 319.6 L 654.6 319.6 L 661.4 317.9 L 668.0 319.6 L 674.4 321.3 L 697.7 322.9" fill="none" stroke="#f85149" stroke-width="2.5"/>
<circle cx="455.4" cy="394.8" r="5" fill="#f85149" class="point"/>
<text x="463.4" y="386.8" text-anchor="start" font-size="10">8t</text>
<circle cx="576.6" cy="332.0" r="5" fill="#f85149" class="point"/>
<text x="584.6" y="324.0" text-anchor="start" font-size="10">4t</text>
<circle cx="615.6" cy="321.3" r="5" fill="#f85149" class="point"/>
<text x="623.6" y="313.3" text-anchor="start" font-size="10">3t</text>
<circle cx="624.1" cy="319.6" r="5" fill="#f85149" class="point"/>
<text x="632.1" y="311.6" text-anchor="start" font-size="10">3t</text>
<circle cx="632.2" cy="317.9" r="7" fill="#f85149" class="point"/>
<text x="640.2" y="309.9" text-anchor="start" font-size="10">2t</text>
<circle cx="640.0" cy="319.6" r="5" fill="#f85149" class="point"/>
<text x="648.0" y="311.6" text-anchor="start" font-size="10">2t</text>
<circle cx="647.4" cy="319.6" r="5" fill="#f85149" class="point"/>
<text x="655.4" y="311.6" text-anchor="start" font-size="10">2t</text>
<circle cx="654.6" cy="319.6" r="5" fill="#f85149" class="point"/>
<text x="662.6" y="311.6" text-anchor="start" font-size="10">2t</text>
<circle cx="661.4" cy="317.9" r="5" fill="#f85149" class="point"/>
<text x="669.4" y="309.9" text-anchor="start" font-size="10">2t</text>
<circle cx="668.0" cy="319.6" r="5" fill="#f85149" class="point"/>
<text x="676.0" y="311.6" text-anchor="start" font-size="10">2t</text>
<circle cx="674.4" cy="321.3" r="5" fill="#f85149" class="point"/>
<text x="682.4" y="313.3" text-anchor="start" font-size="10">2t</text>
<circle cx="697.7" cy="322.9" r="5" fill="#f85149" class="point"/>
<text x="705.7" y="314.9" text-anchor="start" font-size="10">2t</text>
<rect x="660" y="122" width="12" height="12" fill="#f85149"/>
<text x="680" y="132" font-size="11">32t — rh8-s32 (32 vCPU)</text>
</svg>
