<svg xmlns="http://www.w3.org/2000/svg" width="980" height="560" viewBox="0 0 980 560">
<rect width="100%" height="100%" fill="#0d1117"/>
<style>text{font-family:ui-monospace,SFMono-Regular,Consolas,monospace;fill:#e6edf3}.muted{fill:#8b949e}.axis{stroke:#484f58;stroke-width:1}.grid{stroke:#21262d;stroke-width:1}.point{stroke:#e6edf3;stroke-width:1.2}</style>
<text x="24" y="34" font-size="22" font-weight="700">Execution processing profile — adaptive_radial_edge</text>
<text x="24" y="58" font-size="13" class="muted">Pipeline count vs parameter sets/second; thread count is annotated at each measured shape.</text>
<line x1="92" y1="470" x2="940" y2="470" class="axis"/>
<line x1="92" y1="112" x2="92" y2="470" class="axis"/>
<line x1="92" y1="470.0" x2="940" y2="470.0" class="grid"/>
<text x="80" y="474.0" text-anchor="end" font-size="11">0.0</text>
<line x1="92" y1="407.7" x2="940" y2="407.7" class="grid"/>
<text x="80" y="411.7" text-anchor="end" font-size="11">6.4</text>
<line x1="92" y1="345.5" x2="940" y2="345.5" class="grid"/>
<text x="80" y="349.5" text-anchor="end" font-size="11">12.8</text>
<line x1="92" y1="283.2" x2="940" y2="283.2" class="grid"/>
<text x="80" y="287.2" text-anchor="end" font-size="11">19.2</text>
<line x1="92" y1="221.0" x2="940" y2="221.0" class="grid"/>
<text x="80" y="225.0" text-anchor="end" font-size="11">25.6</text>
<line x1="92" y1="158.7" x2="940" y2="158.7" class="grid"/>
<text x="80" y="162.7" text-anchor="end" font-size="11">32.0</text>
<line x1="92.0" y1="112" x2="92.0" y2="470" class="grid"/>
<text x="92.0" y="494" text-anchor="middle" font-size="11">1</text>
<line x1="203.8" y1="112" x2="203.8" y2="470" class="grid"/>
<text x="203.8" y="494" text-anchor="middle" font-size="11">2</text>
<line x1="315.6" y1="112" x2="315.6" y2="470" class="grid"/>
<text x="315.6" y="494" text-anchor="middle" font-size="11">4</text>
<line x1="427.4" y1="112" x2="427.4" y2="470" class="grid"/>
<text x="427.4" y="494" text-anchor="middle" font-size="11">8</text>
<line x1="539.2" y1="112" x2="539.2" y2="470" class="grid"/>
<text x="539.2" y="494" text-anchor="middle" font-size="11">16</text>
<line x1="651.0" y1="112" x2="651.0" y2="470" class="grid"/>
<text x="651.0" y="494" text-anchor="middle" font-size="11">32</text>
<line x1="762.8" y1="112" x2="762.8" y2="470" class="grid"/>
<text x="762.8" y="494" text-anchor="middle" font-size="11">64</text>
<line x1="874.6" y1="112" x2="874.6" y2="470" class="grid"/>
<text x="874.6" y="494" text-anchor="middle" font-size="11">128</text>
<line x1="940.0" y1="112" x2="940.0" y2="470" class="grid"/>
<text x="940.0" y="494" text-anchor="middle" font-size="11">192</text>
<text x="516.0" y="532" text-anchor="middle" font-size="13" class="muted">detector pipelines (log₂ scale)</text>
<text x="28" y="291.0" text-anchor="middle" font-size="13" class="muted" transform="rotate(-90 28 291.0)">parameter sets / second</text>
<path d="M 405.9 278.4 L 735.4 193.3 L 738.4 158.7 L 741.3 193.3 L 839.6 278.4" fill="none" stroke="#58a6ff" stroke-width="2.5"/>
<circle cx="405.9" cy="278.4" r="5" fill="#58a6ff" class="point"/>
<text x="413.9" y="270.4" text-anchor="start" font-size="10">54t</text>
<circle cx="735.4" cy="193.3" r="5" fill="#58a6ff" class="point"/>
<text x="743.4" y="185.3" text-anchor="start" font-size="10">7t</text>
<circle cx="738.4" cy="158.7" r="7" fill="#58a6ff" class="point"/>
<text x="746.4" y="150.7" text-anchor="start" font-size="10">6t</text>
<circle cx="741.3" cy="193.3" r="5" fill="#58a6ff" class="point"/>
<text x="749.3" y="185.3" text-anchor="start" font-size="10">6t</text>
<circle cx="839.6" cy="278.4" r="5" fill="#58a6ff" class="point"/>
<text x="847.6" y="270.4" text-anchor="start" font-size="10">3t</text>
<rect x="660" y="68" width="12" height="12" fill="#58a6ff"/>
<text x="680" y="78" font-size="11">192t — rh8-al318 (192 vCPU) — run 33013480994</text>
<path d="M 539.2 323.5 L 738.4 323.5 L 741.3 331.6 L 744.1 331.6 L 749.7 338.9 L 762.8 331.6 L 788.4 338.9 L 839.6 356.8 L 940.0 402.7" fill="none" stroke="#3fb950" stroke-width="2.5"/>
<circle cx="539.2" cy="323.5" r="5" fill="#3fb950" class="point"/>
<text x="547.2" y="315.5" text-anchor="start" font-size="10">24t</text>
<circle cx="738.4" cy="323.5" r="7" fill="#3fb950" class="point"/>
<text x="746.4" y="315.5" text-anchor="start" font-size="10">6t</text>
<circle cx="741.3" cy="331.6" r="5" fill="#3fb950" class="point"/>
<text x="749.3" y="323.6" text-anchor="start" font-size="10">6t</text>
<circle cx="744.1" cy="331.6" r="5" fill="#3fb950" class="point"/>
<text x="752.1" y="323.6" text-anchor="start" font-size="10">6t</text>
<circle cx="749.7" cy="338.9" r="5" fill="#3fb950" class="point"/>
<text x="757.7" y="330.9" text-anchor="start" font-size="10">6t</text>
<circle cx="762.8" cy="331.6" r="5" fill="#3fb950" class="point"/>
<text x="770.8" y="323.6" text-anchor="start" font-size="10">6t</text>
<circle cx="788.4" cy="338.9" r="5" fill="#3fb950" class="point"/>
<text x="796.4" y="330.9" text-anchor="start" font-size="10">5t</text>
<circle cx="839.6" cy="356.8" r="5" fill="#3fb950" class="point"/>
<text x="847.6" y="348.8" text-anchor="start" font-size="10">3t</text>
<circle cx="940.0" cy="402.7" r="5" fill="#3fb950" class="point"/>
<text x="948.0" y="394.7" text-anchor="start" font-size="10">2t</text>
<rect x="660" y="86" width="12" height="12" fill="#3fb950"/>
<text x="680" y="96" font-size="11">192t — rh8-al321 (192 vCPU) — run 33007779343</text>
</svg>
