<svg xmlns="http://www.w3.org/2000/svg" width="980" height="560" viewBox="0 0 980 560">
<rect width="100%" height="100%" fill="#0d1117"/>
<style>text{font-family:ui-monospace,SFMono-Regular,Consolas,monospace;fill:#e6edf3}.muted{fill:#8b949e}.axis{stroke:#484f58;stroke-width:1}.grid{stroke:#21262d;stroke-width:1}.point{stroke:#e6edf3;stroke-width:1.2}</style>
<text x="24" y="34" font-size="22" font-weight="700">Execution processing profile — amsre_bfq_spbv_pbg</text>
<text x="24" y="58" font-size="13" class="muted">Pipeline count vs parameter sets/second; thread count is annotated at each measured shape.</text>
<line x1="92" y1="470" x2="940" y2="470" class="axis"/>
<line x1="92" y1="112" x2="92" y2="470" class="axis"/>
<line x1="92" y1="470.0" x2="940" y2="470.0" class="grid"/>
<text x="80" y="474.0" text-anchor="end" font-size="11">0.0</text>
<line x1="92" y1="407.7" x2="940" y2="407.7" class="grid"/>
<text x="80" y="411.7" text-anchor="end" font-size="11">2.1</text>
<line x1="92" y1="345.5" x2="940" y2="345.5" class="grid"/>
<text x="80" y="349.5" text-anchor="end" font-size="11">4.2</text>
<line x1="92" y1="283.2" x2="940" y2="283.2" class="grid"/>
<text x="80" y="287.2" text-anchor="end" font-size="11">6.4</text>
<line x1="92" y1="221.0" x2="940" y2="221.0" class="grid"/>
<text x="80" y="225.0" text-anchor="end" font-size="11">8.5</text>
<line x1="92" y1="158.7" x2="940" y2="158.7" class="grid"/>
<text x="80" y="162.7" text-anchor="end" font-size="11">10.6</text>
<line x1="92.0" y1="112" x2="92.0" y2="470" class="grid"/>
<text x="92.0" y="494" text-anchor="middle" font-size="11">1</text>
<line x1="233.3" y1="112" x2="233.3" y2="470" class="grid"/>
<text x="233.3" y="494" text-anchor="middle" font-size="11">2</text>
<line x1="374.7" y1="112" x2="374.7" y2="470" class="grid"/>
<text x="374.7" y="494" text-anchor="middle" font-size="11">4</text>
<line x1="516.0" y1="112" x2="516.0" y2="470" class="grid"/>
<text x="516.0" y="494" text-anchor="middle" font-size="11">8</text>
<line x1="657.3" y1="112" x2="657.3" y2="470" class="grid"/>
<text x="657.3" y="494" text-anchor="middle" font-size="11">16</text>
<line x1="798.7" y1="112" x2="798.7" y2="470" class="grid"/>
<text x="798.7" y="494" text-anchor="middle" font-size="11">32</text>
<line x1="940.0" y1="112" x2="940.0" y2="470" class="grid"/>
<text x="940.0" y="494" text-anchor="middle" font-size="11">64</text>
<text x="516.0" y="532" text-anchor="middle" font-size="13" class="muted">detector pipelines (log₂ scale)</text>
<text x="28" y="291.0" text-anchor="middle" font-size="13" class="muted" transform="rotate(-90 28 291.0)">parameter sets / second</text>
<path d="M 657.3 264.4 L 798.7 172.5 L 849.2 165.5 L 854.1 158.7 L 858.9 164.6 L 863.6 162.5 L 868.2 163.7 L 872.7 159.3 L 877.0 161.9 L 881.3 160.2 L 885.5 165.7 L 940.0 165.7" fill="none" stroke="#58a6ff" stroke-width="2.5"/>
<circle cx="657.3" cy="264.4" r="5" fill="#58a6ff" class="point"/>
<text x="665.3" y="256.4" text-anchor="start" font-size="10">24t</text>
<circle cx="798.7" cy="172.5" r="5" fill="#58a6ff" class="point"/>
<text x="806.7" y="164.5" text-anchor="start" font-size="10">12t</text>
<circle cx="849.2" cy="165.5" r="5" fill="#58a6ff" class="point"/>
<text x="857.2" y="157.5" text-anchor="start" font-size="10">9t</text>
<circle cx="854.1" cy="158.7" r="7" fill="#58a6ff" class="point"/>
<text x="862.1" y="150.7" text-anchor="start" font-size="10">9t</text>
<circle cx="858.9" cy="164.6" r="5" fill="#58a6ff" class="point"/>
<text x="866.9" y="156.6" text-anchor="start" font-size="10">8t</text>
<circle cx="863.6" cy="162.5" r="5" fill="#58a6ff" class="point"/>
<text x="871.6" y="154.5" text-anchor="start" font-size="10">8t</text>
<circle cx="868.2" cy="163.7" r="5" fill="#58a6ff" class="point"/>
<text x="876.2" y="155.7" text-anchor="start" font-size="10">8t</text>
<circle cx="872.7" cy="159.3" r="5" fill="#58a6ff" class="point"/>
<text x="880.7" y="151.3" text-anchor="start" font-size="10">8t</text>
<circle cx="877.0" cy="161.9" r="5" fill="#58a6ff" class="point"/>
<text x="885.0" y="153.9" text-anchor="start" font-size="10">8t</text>
<circle cx="881.3" cy="160.2" r="5" fill="#58a6ff" class="point"/>
<text x="889.3" y="152.2" text-anchor="start" font-size="10">8t</text>
<circle cx="885.5" cy="165.7" r="5" fill="#58a6ff" class="point"/>
<text x="893.5" y="157.7" text-anchor="start" font-size="10">7t</text>
<circle cx="940.0" cy="165.7" r="5" fill="#58a6ff" class="point"/>
<text x="948.0" y="157.7" text-anchor="start" font-size="10">6t</text>
<rect x="660" y="68" width="12" height="12" fill="#58a6ff"/>
<text x="680" y="78" font-size="11">192t — rh8-al307 (192 vCPU)</text>
</svg>
