<svg xmlns="http://www.w3.org/2000/svg" width="980" height="560" viewBox="0 0 980 560">
<rect width="100%" height="100%" fill="#0d1117"/>
<style>text{font-family:ui-monospace,SFMono-Regular,Consolas,monospace;fill:#e6edf3}.muted{fill:#8b949e}.axis{stroke:#484f58;stroke-width:1}.grid{stroke:#21262d;stroke-width:1}.point{stroke:#e6edf3;stroke-width:1.2}</style>
<text x="24" y="34" font-size="22" font-weight="700">Execution processing profile — contour_projection</text>
<text x="24" y="58" font-size="13" class="muted">Pipeline count vs parameter sets/second; thread count is annotated at each measured shape.</text>
<line x1="92" y1="470" x2="940" y2="470" class="axis"/>
<line x1="92" y1="112" x2="92" y2="470" class="axis"/>
<line x1="92" y1="470.0" x2="940" y2="470.0" class="grid"/>
<text x="80" y="474.0" text-anchor="end" font-size="11">0.0</text>
<line x1="92" y1="407.7" x2="940" y2="407.7" class="grid"/>
<text x="80" y="411.7" text-anchor="end" font-size="11">9.9</text>
<line x1="92" y1="345.5" x2="940" y2="345.5" class="grid"/>
<text x="80" y="349.5" text-anchor="end" font-size="11">19.9</text>
<line x1="92" y1="283.2" x2="940" y2="283.2" class="grid"/>
<text x="80" y="287.2" text-anchor="end" font-size="11">29.8</text>
<line x1="92" y1="221.0" x2="940" y2="221.0" class="grid"/>
<text x="80" y="225.0" text-anchor="end" font-size="11">39.8</text>
<line x1="92" y1="158.7" x2="940" y2="158.7" class="grid"/>
<text x="80" y="162.7" text-anchor="end" font-size="11">49.7</text>
<line x1="92.0" y1="112" x2="92.0" y2="470" class="grid"/>
<text x="92.0" y="494" text-anchor="middle" font-size="11">1</text>
<line x1="213.1" y1="112" x2="213.1" y2="470" class="grid"/>
<text x="213.1" y="494" text-anchor="middle" font-size="11">2</text>
<line x1="334.3" y1="112" x2="334.3" y2="470" class="grid"/>
<text x="334.3" y="494" text-anchor="middle" font-size="11">4</text>
<line x1="455.4" y1="112" x2="455.4" y2="470" class="grid"/>
<text x="455.4" y="494" text-anchor="middle" font-size="11">8</text>
<line x1="576.6" y1="112" x2="576.6" y2="470" class="grid"/>
<text x="576.6" y="494" text-anchor="middle" font-size="11">16</text>
<line x1="697.7" y1="112" x2="697.7" y2="470" class="grid"/>
<text x="697.7" y="494" text-anchor="middle" font-size="11">32</text>
<line x1="818.9" y1="112" x2="818.9" y2="470" class="grid"/>
<text x="818.9" y="494" text-anchor="middle" font-size="11">64</text>
<line x1="940.0" y1="112" x2="940.0" y2="470" class="grid"/>
<text x="940.0" y="494" text-anchor="middle" font-size="11">128</text>
<text x="516.0" y="532" text-anchor="middle" font-size="13" class="muted">detector pipelines (log₂ scale)</text>
<text x="28" y="291.0" text-anchor="middle" font-size="13" class="muted" transform="rotate(-90 28 291.0)">parameter sets / second</text>
<path d="M 92.0 450.1 L 494.4 268.6 L 511.1 244.2 L 526.3 211.6 L 540.3 197.9 L 553.2 194.2 L 565.3 184.6 L 576.6 188.5 L 587.2 172.2 L 597.2 167.9 L 606.6 165.6 L 615.6 165.6 L 624.1 158.7 L 632.2 165.6 L 940.0 246.7" fill="none" stroke="#58a6ff" stroke-width="2.5"/>
<circle cx="92.0" cy="450.1" r="5" fill="#58a6ff" class="point"/>
<text x="100.0" y="442.1" text-anchor="start" font-size="10">384t</text>
<circle cx="494.4" cy="268.6" r="5" fill="#58a6ff" class="point"/>
<text x="502.4" y="260.6" text-anchor="start" font-size="10">38t</text>
<circle cx="511.1" cy="244.2" r="5" fill="#58a6ff" class="point"/>
<text x="519.1" y="236.2" text-anchor="start" font-size="10">34t</text>
<circle cx="526.3" cy="211.6" r="5" fill="#58a6ff" class="point"/>
<text x="534.3" y="203.6" text-anchor="start" font-size="10">32t</text>
<circle cx="540.3" cy="197.9" r="5" fill="#58a6ff" class="point"/>
<text x="548.3" y="189.9" text-anchor="start" font-size="10">29t</text>
<circle cx="553.2" cy="194.2" r="5" fill="#58a6ff" class="point"/>
<text x="561.2" y="186.2" text-anchor="start" font-size="10">27t</text>
<circle cx="565.3" cy="184.6" r="5" fill="#58a6ff" class="point"/>
<text x="573.3" y="176.6" text-anchor="start" font-size="10">25t</text>
<circle cx="576.6" cy="188.5" r="5" fill="#58a6ff" class="point"/>
<text x="584.6" y="180.5" text-anchor="start" font-size="10">24t</text>
<circle cx="587.2" cy="172.2" r="5" fill="#58a6ff" class="point"/>
<text x="595.2" y="164.2" text-anchor="start" font-size="10">22t</text>
<circle cx="597.2" cy="167.9" r="5" fill="#58a6ff" class="point"/>
<text x="605.2" y="159.9" text-anchor="start" font-size="10">21t</text>
<circle cx="606.6" cy="165.6" r="5" fill="#58a6ff" class="point"/>
<text x="614.6" y="157.6" text-anchor="start" font-size="10">20t</text>
<circle cx="615.6" cy="165.6" r="5" fill="#58a6ff" class="point"/>
<text x="623.6" y="157.6" text-anchor="start" font-size="10">19t</text>
<circle cx="624.1" cy="158.7" r="7" fill="#58a6ff" class="point"/>
<text x="632.1" y="150.7" text-anchor="start" font-size="10">18t</text>
<circle cx="632.2" cy="165.6" r="5" fill="#58a6ff" class="point"/>
<text x="640.2" y="157.6" text-anchor="start" font-size="10">17t</text>
<circle cx="940.0" cy="246.7" r="5" fill="#58a6ff" class="point"/>
<text x="948.0" y="238.7" text-anchor="start" font-size="10">3t</text>
<rect x="660" y="68" width="12" height="12" fill="#58a6ff"/>
<text x="680" y="78" font-size="11">192t — rh8-al321 (192 vCPU)</text>
</svg>
