<svg xmlns="http://www.w3.org/2000/svg" width="980" height="560" viewBox="0 0 980 560">
<rect width="100%" height="100%" fill="#0d1117"/>
<style>text{font-family:ui-monospace,SFMono-Regular,Consolas,monospace;fill:#e6edf3}.muted{fill:#8b949e}.axis{stroke:#484f58;stroke-width:1}.grid{stroke:#21262d;stroke-width:1}.point{stroke:#e6edf3;stroke-width:1.2}</style>
<text x="24" y="34" font-size="22" font-weight="700">Execution processing profile — doc_ufcn_page_mask</text>
<text x="24" y="58" font-size="13" class="muted">Pipeline count vs parameter sets/second; thread count is annotated at each measured shape.</text>
<line x1="92" y1="470" x2="940" y2="470" class="axis"/>
<line x1="92" y1="112" x2="92" y2="470" class="axis"/>
<line x1="92" y1="470.0" x2="940" y2="470.0" class="grid"/>
<text x="80" y="474.0" text-anchor="end" font-size="11">0.0</text>
<line x1="92" y1="407.7" x2="940" y2="407.7" class="grid"/>
<text x="80" y="411.7" text-anchor="end" font-size="11">28.6</text>
<line x1="92" y1="345.5" x2="940" y2="345.5" class="grid"/>
<text x="80" y="349.5" text-anchor="end" font-size="11">57.1</text>
<line x1="92" y1="283.2" x2="940" y2="283.2" class="grid"/>
<text x="80" y="287.2" text-anchor="end" font-size="11">85.7</text>
<line x1="92" y1="221.0" x2="940" y2="221.0" class="grid"/>
<text x="80" y="225.0" text-anchor="end" font-size="11">114.3</text>
<line x1="92" y1="158.7" x2="940" y2="158.7" class="grid"/>
<text x="80" y="162.7" text-anchor="end" font-size="11">142.9</text>
<line x1="92.0" y1="112" x2="92.0" y2="470" class="grid"/>
<text x="92.0" y="494" text-anchor="middle" font-size="11">1</text>
<line x1="233.3" y1="112" x2="233.3" y2="470" class="grid"/>
<text x="233.3" y="494" text-anchor="middle" font-size="11">2</text>
<line x1="374.7" y1="112" x2="374.7" y2="470" class="grid"/>
<text x="374.7" y="494" text-anchor="middle" font-size="11">4</text>
<line x1="516.0" y1="112" x2="516.0" y2="470" class="grid"/>
<text x="516.0" y="494" text-anchor="middle" font-size="11">8</text>
<line x1="657.3" y1="112" x2="657.3" y2="470" class="grid"/>
<text x="657.3" y="494" text-anchor="middle" font-size="11">16</text>
<line x1="798.7" y1="112" x2="798.7" y2="470" class="grid"/>
<text x="798.7" y="494" text-anchor="middle" font-size="11">32</text>
<line x1="940.0" y1="112" x2="940.0" y2="470" class="grid"/>
<text x="940.0" y="494" text-anchor="middle" font-size="11">64</text>
<text x="516.0" y="532" text-anchor="middle" font-size="13" class="muted">detector pipelines (log₂ scale)</text>
<text x="28" y="291.0" text-anchor="middle" font-size="13" class="muted" transform="rotate(-90 28 291.0)">parameter sets / second</text>
<path d="M 233.3 252.1 L 540.0 213.6 L 561.5 197.6 L 580.9 227.9 L 940.0 370.9" fill="none" stroke="#58a6ff" stroke-width="2.5"/>
<circle cx="233.3" cy="252.1" r="5" fill="#58a6ff" class="point"/>
<text x="241.3" y="244.1" text-anchor="start" font-size="10">192t</text>
<circle cx="540.0" cy="213.6" r="5" fill="#58a6ff" class="point"/>
<text x="548.0" y="205.6" text-anchor="start" font-size="10">42t</text>
<circle cx="561.5" cy="197.6" r="7" fill="#58a6ff" class="point"/>
<text x="569.5" y="189.6" text-anchor="start" font-size="10">38t</text>
<circle cx="580.9" cy="227.9" r="5" fill="#58a6ff" class="point"/>
<text x="588.9" y="219.9" text-anchor="start" font-size="10">34t</text>
<circle cx="940.0" cy="370.9" r="5" fill="#58a6ff" class="point"/>
<text x="948.0" y="362.9" text-anchor="start" font-size="10">6t</text>
<rect x="660" y="68" width="12" height="12" fill="#58a6ff"/>
<text x="680" y="78" font-size="11">192t — rh8-al308 (192 vCPU)</text>
<path d="M 457.3 179.4 L 488.8 179.4 L 516.0 197.6 L 540.0 213.6" fill="none" stroke="#3fb950" stroke-width="2.5"/>
<circle cx="457.3" cy="179.4" r="5" fill="#3fb950" class="point"/>
<text x="465.3" y="171.4" text-anchor="start" font-size="10">64t</text>
<circle cx="488.8" cy="179.4" r="7" fill="#3fb950" class="point"/>
<text x="496.8" y="171.4" text-anchor="start" font-size="10">54t</text>
<circle cx="516.0" cy="197.6" r="5" fill="#3fb950" class="point"/>
<text x="524.0" y="189.6" text-anchor="start" font-size="10">48t</text>
<circle cx="540.0" cy="213.6" r="5" fill="#3fb950" class="point"/>
<text x="548.0" y="205.6" text-anchor="start" font-size="10">42t</text>
<rect x="660" y="86" width="12" height="12" fill="#3fb950"/>
<text x="680" y="96" font-size="11">192t — rh8-al317 (192 vCPU)</text>
<path d="M 374.7 158.7 L 420.2 158.7 L 457.3 158.7 L 488.8 197.6" fill="none" stroke="#d29922" stroke-width="2.5"/>
<circle cx="374.7" cy="158.7" r="5" fill="#d29922" class="point"/>
<text x="382.7" y="150.7" text-anchor="start" font-size="10">96t</text>
<circle cx="420.2" cy="158.7" r="7" fill="#d29922" class="point"/>
<text x="428.2" y="150.7" text-anchor="start" font-size="10">76t</text>
<circle cx="457.3" cy="158.7" r="5" fill="#d29922" class="point"/>
<text x="465.3" y="150.7" text-anchor="start" font-size="10">64t</text>
<circle cx="488.8" cy="197.6" r="5" fill="#d29922" class="point"/>
<text x="496.8" y="189.6" text-anchor="start" font-size="10">54t</text>
<rect x="660" y="104" width="12" height="12" fill="#d29922"/>
<text x="680" y="114" font-size="11">192t — rh8-al307 (192 vCPU)</text>
</svg>
