<svg xmlns="http://www.w3.org/2000/svg" width="980" height="560" viewBox="0 0 980 560">
<rect width="100%" height="100%" fill="#0d1117"/>
<style>text{font-family:ui-monospace,SFMono-Regular,Consolas,monospace;fill:#e6edf3}.muted{fill:#8b949e}.axis{stroke:#484f58;stroke-width:1}.grid{stroke:#21262d;stroke-width:1}.point{stroke:#e6edf3;stroke-width:1.2}</style>
<text x="24" y="34" font-size="22" font-weight="700">Execution processing profile — signed_polar_boundary_vote</text>
<text x="24" y="58" font-size="13" class="muted">Pipeline count vs parameter sets/second; thread count is annotated at each measured shape.</text>
<line x1="92" y1="470" x2="940" y2="470" class="axis"/>
<line x1="92" y1="112" x2="92" y2="470" class="axis"/>
<line x1="92" y1="470.0" x2="940" y2="470.0" class="grid"/>
<text x="80" y="474.0" text-anchor="end" font-size="11">0.0</text>
<line x1="92" y1="407.7" x2="940" y2="407.7" class="grid"/>
<text x="80" y="411.7" text-anchor="end" font-size="11">12.8</text>
<line x1="92" y1="345.5" x2="940" y2="345.5" class="grid"/>
<text x="80" y="349.5" text-anchor="end" font-size="11">25.6</text>
<line x1="92" y1="283.2" x2="940" y2="283.2" class="grid"/>
<text x="80" y="287.2" text-anchor="end" font-size="11">38.4</text>
<line x1="92" y1="221.0" x2="940" y2="221.0" class="grid"/>
<text x="80" y="225.0" text-anchor="end" font-size="11">51.2</text>
<line x1="92" y1="158.7" x2="940" y2="158.7" class="grid"/>
<text x="80" y="162.7" text-anchor="end" font-size="11">64.0</text>
<line x1="92.0" y1="112" x2="92.0" y2="470" class="grid"/>
<text x="92.0" y="494" text-anchor="middle" font-size="11">1</text>
<line x1="223.3" y1="112" x2="223.3" y2="470" class="grid"/>
<text x="223.3" y="494" text-anchor="middle" font-size="11">2</text>
<line x1="354.6" y1="112" x2="354.6" y2="470" class="grid"/>
<text x="354.6" y="494" text-anchor="middle" font-size="11">4</text>
<line x1="485.8" y1="112" x2="485.8" y2="470" class="grid"/>
<text x="485.8" y="494" text-anchor="middle" font-size="11">8</text>
<line x1="617.1" y1="112" x2="617.1" y2="470" class="grid"/>
<text x="617.1" y="494" text-anchor="middle" font-size="11">16</text>
<line x1="748.4" y1="112" x2="748.4" y2="470" class="grid"/>
<text x="748.4" y="494" text-anchor="middle" font-size="11">32</text>
<line x1="879.7" y1="112" x2="879.7" y2="470" class="grid"/>
<text x="879.7" y="494" text-anchor="middle" font-size="11">64</text>
<line x1="940.0" y1="112" x2="940.0" y2="470" class="grid"/>
<text x="940.0" y="494" text-anchor="middle" font-size="11">88</text>
<text x="516.0" y="532" text-anchor="middle" font-size="13" class="muted">detector pipelines (log₂ scale)</text>
<text x="28" y="291.0" text-anchor="middle" font-size="13" class="muted" transform="rotate(-90 28 291.0)">parameter sets / second</text>
<path d="M 300.1 331.6 L 460.6 262.5 L 485.8 221.0 L 508.2 221.0 L 528.1 221.0 L 546.2 221.0 L 562.6 221.0 L 577.8 221.0 L 591.8 221.0 L 604.9 158.7 L 617.1 158.7 L 628.6 221.0 L 677.4 221.0 L 748.4 221.0 L 781.0 262.5 L 817.1 292.1" fill="none" stroke="#58a6ff" stroke-width="2.5"/>
<circle cx="300.1" cy="331.6" r="5" fill="#58a6ff" class="point"/>
<text x="308.1" y="323.6" text-anchor="start" font-size="10">128t</text>
<circle cx="460.6" cy="262.5" r="5" fill="#58a6ff" class="point"/>
<text x="468.6" y="254.5" text-anchor="start" font-size="10">54t</text>
<circle cx="485.8" cy="221.0" r="5" fill="#58a6ff" class="point"/>
<text x="493.8" y="213.0" text-anchor="start" font-size="10">48t</text>
<circle cx="508.2" cy="221.0" r="5" fill="#58a6ff" class="point"/>
<text x="516.2" y="213.0" text-anchor="start" font-size="10">42t</text>
<circle cx="528.1" cy="221.0" r="5" fill="#58a6ff" class="point"/>
<text x="536.1" y="213.0" text-anchor="start" font-size="10">38t</text>
<circle cx="546.2" cy="221.0" r="5" fill="#58a6ff" class="point"/>
<text x="554.2" y="213.0" text-anchor="start" font-size="10">34t</text>
<circle cx="562.6" cy="221.0" r="5" fill="#58a6ff" class="point"/>
<text x="570.6" y="213.0" text-anchor="start" font-size="10">32t</text>
<circle cx="577.8" cy="221.0" r="5" fill="#58a6ff" class="point"/>
<text x="585.8" y="213.0" text-anchor="start" font-size="10">29t</text>
<circle cx="591.8" cy="221.0" r="5" fill="#58a6ff" class="point"/>
<text x="599.8" y="213.0" text-anchor="start" font-size="10">27t</text>
<circle cx="604.9" cy="158.7" r="7" fill="#58a6ff" class="point"/>
<text x="612.9" y="150.7" text-anchor="start" font-size="10">25t</text>
<circle cx="617.1" cy="158.7" r="5" fill="#58a6ff" class="point"/>
<text x="625.1" y="150.7" text-anchor="start" font-size="10">24t</text>
<circle cx="628.6" cy="221.0" r="5" fill="#58a6ff" class="point"/>
<text x="636.6" y="213.0" text-anchor="start" font-size="10">22t</text>
<circle cx="677.4" cy="221.0" r="5" fill="#58a6ff" class="point"/>
<text x="685.4" y="213.0" text-anchor="start" font-size="10">17t</text>
<circle cx="748.4" cy="221.0" r="5" fill="#58a6ff" class="point"/>
<text x="756.4" y="213.0" text-anchor="start" font-size="10">12t</text>
<circle cx="781.0" cy="262.5" r="5" fill="#58a6ff" class="point"/>
<text x="789.0" y="254.5" text-anchor="start" font-size="10">10t</text>
<circle cx="817.1" cy="292.1" r="5" fill="#58a6ff" class="point"/>
<text x="825.1" y="284.1" text-anchor="start" font-size="10">8t</text>
<rect x="660" y="68" width="12" height="12" fill="#58a6ff"/>
<text x="680" y="78" font-size="11">192t — rh8-al321 (192 vCPU) — run 33101177417</text>
<path d="M 223.3 366.2 L 396.8 292.1 L 431.4 262.5 L 460.6 262.5 L 485.8 221.0 L 508.2 221.0 L 528.1 221.0 L 546.2 158.7 L 562.6 221.0 L 790.7 262.5 L 808.7 292.1 L 829.1 314.3 L 864.3 331.6 L 940.0 345.5" fill="none" stroke="#3fb950" stroke-width="2.5"/>
<circle cx="223.3" cy="366.2" r="5" fill="#3fb950" class="point"/>
<text x="231.3" y="358.2" text-anchor="start" font-size="10">192t</text>
<circle cx="396.8" cy="292.1" r="5" fill="#3fb950" class="point"/>
<text x="404.8" y="284.1" text-anchor="start" font-size="10">76t</text>
<circle cx="431.4" cy="262.5" r="5" fill="#3fb950" class="point"/>
<text x="439.4" y="254.5" text-anchor="start" font-size="10">64t</text>
<circle cx="460.6" cy="262.5" r="5" fill="#3fb950" class="point"/>
<text x="468.6" y="254.5" text-anchor="start" font-size="10">54t</text>
<circle cx="485.8" cy="221.0" r="5" fill="#3fb950" class="point"/>
<text x="493.8" y="213.0" text-anchor="start" font-size="10">48t</text>
<circle cx="508.2" cy="221.0" r="5" fill="#3fb950" class="point"/>
<text x="516.2" y="213.0" text-anchor="start" font-size="10">42t</text>
<circle cx="528.1" cy="221.0" r="5" fill="#3fb950" class="point"/>
<text x="536.1" y="213.0" text-anchor="start" font-size="10">38t</text>
<circle cx="546.2" cy="158.7" r="7" fill="#3fb950" class="point"/>
<text x="554.2" y="150.7" text-anchor="start" font-size="10">34t</text>
<circle cx="562.6" cy="221.0" r="5" fill="#3fb950" class="point"/>
<text x="570.6" y="213.0" text-anchor="start" font-size="10">32t</text>
<circle cx="790.7" cy="262.5" r="5" fill="#3fb950" class="point"/>
<text x="798.7" y="254.5" text-anchor="start" font-size="10">9t</text>
<circle cx="808.7" cy="292.1" r="5" fill="#3fb950" class="point"/>
<text x="816.7" y="284.1" text-anchor="start" font-size="10">8t</text>
<circle cx="829.1" cy="314.3" r="5" fill="#3fb950" class="point"/>
<text x="837.1" y="306.3" text-anchor="start" font-size="10">7t</text>
<circle cx="864.3" cy="331.6" r="5" fill="#3fb950" class="point"/>
<text x="872.3" y="323.6" text-anchor="start" font-size="10">6t</text>
<circle cx="940.0" cy="345.5" r="5" fill="#3fb950" class="point"/>
<text x="948.0" y="337.5" text-anchor="start" font-size="10">4t</text>
<rect x="660" y="86" width="12" height="12" fill="#3fb950"/>
<text x="680" y="96" font-size="11">192t — rh8-al328 (192 vCPU) — run 33089519534</text>
</svg>
