<svg xmlns="http://www.w3.org/2000/svg" width="980" height="560" viewBox="0 0 980 560">
<rect width="100%" height="100%" fill="#0d1117"/>
<style>text{font-family:ui-monospace,SFMono-Regular,Consolas,monospace;fill:#e6edf3}.muted{fill:#8b949e}.axis{stroke:#484f58;stroke-width:1}.grid{stroke:#21262d;stroke-width:1}.point{stroke:#e6edf3;stroke-width:1.2}</style>
<text x="24" y="34" font-size="22" font-weight="700">Execution processing profile — orli_page_mask</text>
<text x="24" y="58" font-size="13" class="muted">Pipeline count vs parameter sets/second; thread count is annotated at each measured shape.</text>
<line x1="92" y1="470" x2="940" y2="470" class="axis"/>
<line x1="92" y1="112" x2="92" y2="470" class="axis"/>
<line x1="92" y1="470.0" x2="940" y2="470.0" class="grid"/>
<text x="80" y="474.0" text-anchor="end" font-size="11">0.0</text>
<line x1="92" y1="407.7" x2="940" y2="407.7" class="grid"/>
<text x="80" y="411.7" text-anchor="end" font-size="11">60.6</text>
<line x1="92" y1="345.5" x2="940" y2="345.5" class="grid"/>
<text x="80" y="349.5" text-anchor="end" font-size="11">121.2</text>
<line x1="92" y1="283.2" x2="940" y2="283.2" class="grid"/>
<text x="80" y="287.2" text-anchor="end" font-size="11">181.8</text>
<line x1="92" y1="221.0" x2="940" y2="221.0" class="grid"/>
<text x="80" y="225.0" text-anchor="end" font-size="11">242.4</text>
<line x1="92" y1="158.7" x2="940" y2="158.7" class="grid"/>
<text x="80" y="162.7" text-anchor="end" font-size="11">303.0</text>
<line x1="92.0" y1="112" x2="92.0" y2="470" class="grid"/>
<text x="92.0" y="494" text-anchor="middle" font-size="11">1</text>
<line x1="309.1" y1="112" x2="309.1" y2="470" class="grid"/>
<text x="309.1" y="494" text-anchor="middle" font-size="11">2</text>
<line x1="526.1" y1="112" x2="526.1" y2="470" class="grid"/>
<text x="526.1" y="494" text-anchor="middle" font-size="11">4</text>
<line x1="743.2" y1="112" x2="743.2" y2="470" class="grid"/>
<text x="743.2" y="494" text-anchor="middle" font-size="11">8</text>
<line x1="940.0" y1="112" x2="940.0" y2="470" class="grid"/>
<text x="940.0" y="494" text-anchor="middle" font-size="11">15</text>
<text x="516.0" y="532" text-anchor="middle" font-size="13" class="muted">detector pipelines (log₂ scale)</text>
<text x="28" y="291.0" text-anchor="middle" font-size="13" class="muted" transform="rotate(-90 28 291.0)">parameter sets / second</text>
<path d="M 743.2 424.9 L 780.0 192.4 L 813.0 184.6 L 842.9 176.5 L 870.1 158.7 L 895.2 167.9 L 918.4 167.9 L 940.0 167.9" fill="none" stroke="#58a6ff" stroke-width="2.5"/>
<circle cx="743.2" cy="424.9" r="5" fill="#58a6ff" class="point"/>
<text x="751.2" y="416.9" text-anchor="start" font-size="10">48t</text>
<circle cx="780.0" cy="192.4" r="5" fill="#58a6ff" class="point"/>
<text x="788.0" y="184.4" text-anchor="start" font-size="10">42t</text>
<circle cx="813.0" cy="184.6" r="5" fill="#58a6ff" class="point"/>
<text x="821.0" y="176.6" text-anchor="start" font-size="10">38t</text>
<circle cx="842.9" cy="176.5" r="5" fill="#58a6ff" class="point"/>
<text x="850.9" y="168.5" text-anchor="start" font-size="10">34t</text>
<circle cx="870.1" cy="158.7" r="7" fill="#58a6ff" class="point"/>
<text x="878.1" y="150.7" text-anchor="start" font-size="10">32t</text>
<circle cx="895.2" cy="167.9" r="5" fill="#58a6ff" class="point"/>
<text x="903.2" y="159.9" text-anchor="start" font-size="10">29t</text>
<circle cx="918.4" cy="167.9" r="5" fill="#58a6ff" class="point"/>
<text x="926.4" y="159.9" text-anchor="start" font-size="10">27t</text>
<circle cx="940.0" cy="167.9" r="5" fill="#58a6ff" class="point"/>
<text x="948.0" y="159.9" text-anchor="start" font-size="10">25t</text>
<rect x="660" y="68" width="12" height="12" fill="#58a6ff"/>
<text x="680" y="78" font-size="11">192t — rh8-al316 (192 vCPU)</text>
</svg>
