<svg xmlns="http://www.w3.org/2000/svg" width="980" height="560" viewBox="0 0 980 560">
<rect width="100%" height="100%" fill="#0d1117"/>
<style>text{font-family:ui-monospace,SFMono-Regular,Consolas,monospace;fill:#e6edf3}.muted{fill:#8b949e}.axis{stroke:#484f58;stroke-width:1}.grid{stroke:#21262d;stroke-width:1}.point{stroke:#e6edf3;stroke-width:1.2}</style>
<text x="24" y="34" font-size="22" font-weight="700">Execution processing profile — msre_bfq_spbv_pbg</text>
<text x="24" y="58" font-size="13" class="muted">Pipeline count vs parameter sets/second; thread count is annotated at each measured shape.</text>
<line x1="92" y1="470" x2="940" y2="470" class="axis"/>
<line x1="92" y1="112" x2="92" y2="470" class="axis"/>
<line x1="92" y1="470.0" x2="940" y2="470.0" class="grid"/>
<text x="80" y="474.0" text-anchor="end" font-size="11">0.0</text>
<line x1="92" y1="407.7" x2="940" y2="407.7" class="grid"/>
<text x="80" y="411.7" text-anchor="end" font-size="11">0.4</text>
<line x1="92" y1="345.5" x2="940" y2="345.5" class="grid"/>
<text x="80" y="349.5" text-anchor="end" font-size="11">0.9</text>
<line x1="92" y1="283.2" x2="940" y2="283.2" class="grid"/>
<text x="80" y="287.2" text-anchor="end" font-size="11">1.3</text>
<line x1="92" y1="221.0" x2="940" y2="221.0" class="grid"/>
<text x="80" y="225.0" text-anchor="end" font-size="11">1.7</text>
<line x1="92" y1="158.7" x2="940" y2="158.7" class="grid"/>
<text x="80" y="162.7" text-anchor="end" font-size="11">2.2</text>
<line x1="92.0" y1="112" x2="92.0" y2="470" class="grid"/>
<text x="92.0" y="494" text-anchor="middle" font-size="11">1</text>
<line x1="203.8" y1="112" x2="203.8" y2="470" class="grid"/>
<text x="203.8" y="494" text-anchor="middle" font-size="11">2</text>
<line x1="315.6" y1="112" x2="315.6" y2="470" class="grid"/>
<text x="315.6" y="494" text-anchor="middle" font-size="11">4</text>
<line x1="427.4" y1="112" x2="427.4" y2="470" class="grid"/>
<text x="427.4" y="494" text-anchor="middle" font-size="11">8</text>
<line x1="539.2" y1="112" x2="539.2" y2="470" class="grid"/>
<text x="539.2" y="494" text-anchor="middle" font-size="11">16</text>
<line x1="651.0" y1="112" x2="651.0" y2="470" class="grid"/>
<text x="651.0" y="494" text-anchor="middle" font-size="11">32</text>
<line x1="762.8" y1="112" x2="762.8" y2="470" class="grid"/>
<text x="762.8" y="494" text-anchor="middle" font-size="11">64</text>
<line x1="874.6" y1="112" x2="874.6" y2="470" class="grid"/>
<text x="874.6" y="494" text-anchor="middle" font-size="11">128</text>
<line x1="940.0" y1="112" x2="940.0" y2="470" class="grid"/>
<text x="940.0" y="494" text-anchor="middle" font-size="11">192</text>
<text x="516.0" y="532" text-anchor="middle" font-size="13" class="muted">detector pipelines (log₂ scale)</text>
<text x="28" y="291.0" text-anchor="middle" font-size="13" class="muted" transform="rotate(-90 28 291.0)">parameter sets / second</text>
<path d="M 92.0 448.7 L 645.9 166.4 L 651.0 171.2 L 656.0 161.3 L 660.8 161.3 L 665.5 171.2 L 670.0 163.8 L 674.4 158.7 L 678.7 163.8 L 682.9 161.3 L 687.0 163.8 L 691.0 161.3 L 694.9 168.8 L 698.7 158.7 L 702.4 161.3 L 706.0 161.3 L 709.5 163.8 L 713.0 168.8 L 716.4 176.0 L 940.0 257.1" fill="none" stroke="#58a6ff" stroke-width="2.5"/>
<circle cx="92.0" cy="448.7" r="5" fill="#58a6ff" class="point"/>
<text x="100.0" y="440.7" text-anchor="start" font-size="10">384t</text>
<circle cx="645.9" cy="166.4" r="5" fill="#58a6ff" class="point"/>
<text x="653.9" y="158.4" text-anchor="start" font-size="10">12t</text>
<circle cx="651.0" cy="171.2" r="5" fill="#58a6ff" class="point"/>
<text x="659.0" y="163.2" text-anchor="start" font-size="10">12t</text>
<circle cx="656.0" cy="161.3" r="5" fill="#58a6ff" class="point"/>
<text x="664.0" y="153.3" text-anchor="start" font-size="10">11t</text>
<circle cx="660.8" cy="161.3" r="5" fill="#58a6ff" class="point"/>
<text x="668.8" y="153.3" text-anchor="start" font-size="10">11t</text>
<circle cx="665.5" cy="171.2" r="5" fill="#58a6ff" class="point"/>
<text x="673.5" y="163.2" text-anchor="start" font-size="10">10t</text>
<circle cx="670.0" cy="163.8" r="5" fill="#58a6ff" class="point"/>
<text x="678.0" y="155.8" text-anchor="start" font-size="10">10t</text>
<circle cx="674.4" cy="158.7" r="5" fill="#58a6ff" class="point"/>
<text x="682.4" y="150.7" text-anchor="start" font-size="10">10t</text>
<circle cx="678.7" cy="163.8" r="5" fill="#58a6ff" class="point"/>
<text x="686.7" y="155.8" text-anchor="start" font-size="10">10t</text>
<circle cx="682.9" cy="161.3" r="5" fill="#58a6ff" class="point"/>
<text x="690.9" y="153.3" text-anchor="start" font-size="10">9t</text>
<circle cx="687.0" cy="163.8" r="5" fill="#58a6ff" class="point"/>
<text x="695.0" y="155.8" text-anchor="start" font-size="10">9t</text>
<circle cx="691.0" cy="161.3" r="5" fill="#58a6ff" class="point"/>
<text x="699.0" y="153.3" text-anchor="start" font-size="10">9t</text>
<circle cx="694.9" cy="168.8" r="5" fill="#58a6ff" class="point"/>
<text x="702.9" y="160.8" text-anchor="start" font-size="10">9t</text>
<circle cx="698.7" cy="158.7" r="7" fill="#58a6ff" class="point"/>
<text x="706.7" y="150.7" text-anchor="start" font-size="10">8t</text>
<circle cx="702.4" cy="161.3" r="5" fill="#58a6ff" class="point"/>
<text x="710.4" y="153.3" text-anchor="start" font-size="10">8t</text>
<circle cx="706.0" cy="161.3" r="5" fill="#58a6ff" class="point"/>
<text x="714.0" y="153.3" text-anchor="start" font-size="10">8t</text>
<circle cx="709.5" cy="163.8" r="5" fill="#58a6ff" class="point"/>
<text x="717.5" y="155.8" text-anchor="start" font-size="10">8t</text>
<circle cx="713.0" cy="168.8" r="5" fill="#58a6ff" class="point"/>
<text x="721.0" y="160.8" text-anchor="start" font-size="10">8t</text>
<circle cx="716.4" cy="176.0" r="5" fill="#58a6ff" class="point"/>
<text x="724.4" y="168.0" text-anchor="start" font-size="10">8t</text>
<circle cx="940.0" cy="257.1" r="5" fill="#58a6ff" class="point"/>
<text x="948.0" y="249.1" text-anchor="start" font-size="10">2t</text>
<rect x="660" y="68" width="12" height="12" fill="#58a6ff"/>
<text x="680" y="78" font-size="11">192vcpu — rh8-al320 (192 vCPU) — run 35890388544</text>
</svg>
