<svg xmlns="http://www.w3.org/2000/svg" width="980" height="560" viewBox="0 0 980 560">
<rect width="100%" height="100%" fill="#0d1117"/>
<style>text{font-family:ui-monospace,SFMono-Regular,Consolas,monospace;fill:#e6edf3}.muted{fill:#8b949e}.axis{stroke:#484f58;stroke-width:1}.grid{stroke:#21262d;stroke-width:1}.point{stroke:#e6edf3;stroke-width:1.2}</style>
<text x="24" y="34" font-size="22" font-weight="700">Execution processing profile — dhsegment_page_mask</text>
<text x="24" y="58" font-size="13" class="muted">Pipeline count vs parameter sets/second; thread count is annotated at each measured shape.</text>
<line x1="92" y1="470" x2="940" y2="470" class="axis"/>
<line x1="92" y1="112" x2="92" y2="470" class="axis"/>
<line x1="92" y1="470.0" x2="940" y2="470.0" class="grid"/>
<text x="80" y="474.0" text-anchor="end" font-size="11">0.0</text>
<line x1="92" y1="407.7" x2="940" y2="407.7" class="grid"/>
<text x="80" y="411.7" text-anchor="end" font-size="11">3.9</text>
<line x1="92" y1="345.5" x2="940" y2="345.5" class="grid"/>
<text x="80" y="349.5" text-anchor="end" font-size="11">7.9</text>
<line x1="92" y1="283.2" x2="940" y2="283.2" class="grid"/>
<text x="80" y="287.2" text-anchor="end" font-size="11">11.8</text>
<line x1="92" y1="221.0" x2="940" y2="221.0" class="grid"/>
<text x="80" y="225.0" text-anchor="end" font-size="11">15.8</text>
<line x1="92" y1="158.7" x2="940" y2="158.7" class="grid"/>
<text x="80" y="162.7" text-anchor="end" font-size="11">19.7</text>
<line x1="92.0" y1="112" x2="92.0" y2="470" class="grid"/>
<text x="92.0" y="494" text-anchor="middle" font-size="11">1</text>
<line x1="203.8" y1="112" x2="203.8" y2="470" class="grid"/>
<text x="203.8" y="494" text-anchor="middle" font-size="11">2</text>
<line x1="315.6" y1="112" x2="315.6" y2="470" class="grid"/>
<text x="315.6" y="494" text-anchor="middle" font-size="11">4</text>
<line x1="427.4" y1="112" x2="427.4" y2="470" class="grid"/>
<text x="427.4" y="494" text-anchor="middle" font-size="11">8</text>
<line x1="539.2" y1="112" x2="539.2" y2="470" class="grid"/>
<text x="539.2" y="494" text-anchor="middle" font-size="11">16</text>
<line x1="651.0" y1="112" x2="651.0" y2="470" class="grid"/>
<text x="651.0" y="494" text-anchor="middle" font-size="11">32</text>
<line x1="762.8" y1="112" x2="762.8" y2="470" class="grid"/>
<text x="762.8" y="494" text-anchor="middle" font-size="11">64</text>
<line x1="874.6" y1="112" x2="874.6" y2="470" class="grid"/>
<text x="874.6" y="494" text-anchor="middle" font-size="11">128</text>
<line x1="940.0" y1="112" x2="940.0" y2="470" class="grid"/>
<text x="940.0" y="494" text-anchor="middle" font-size="11">192</text>
<text x="516.0" y="532" text-anchor="middle" font-size="13" class="muted">detector pipelines (log₂ scale)</text>
<text x="28" y="291.0" text-anchor="middle" font-size="13" class="muted" transform="rotate(-90 28 291.0)">parameter sets / second</text>
<path d="M 203.8 180.9 L 269.2 180.9 L 315.6 158.7 L 351.6 158.7 L 381.0 158.7 L 405.9 158.7 L 427.4 158.7 L 446.4 158.7 L 463.4 180.9 L 517.7 158.7 L 539.2 180.9 L 566.9 180.9 L 623.6 200.2 L 729.3 231.9 L 940.0 347.4" fill="none" stroke="#58a6ff" stroke-width="2.5"/>
<circle cx="203.8" cy="180.9" r="5" fill="#58a6ff" class="point"/>
<text x="211.8" y="172.9" text-anchor="start" font-size="10">192t</text>
<circle cx="269.2" cy="180.9" r="5" fill="#58a6ff" class="point"/>
<text x="277.2" y="172.9" text-anchor="start" font-size="10">128t</text>
<circle cx="315.6" cy="158.7" r="5" fill="#58a6ff" class="point"/>
<text x="323.6" y="150.7" text-anchor="start" font-size="10">96t</text>
<circle cx="351.6" cy="158.7" r="5" fill="#58a6ff" class="point"/>
<text x="359.6" y="150.7" text-anchor="start" font-size="10">76t</text>
<circle cx="381.0" cy="158.7" r="5" fill="#58a6ff" class="point"/>
<text x="389.0" y="150.7" text-anchor="start" font-size="10">64t</text>
<circle cx="405.9" cy="158.7" r="7" fill="#58a6ff" class="point"/>
<text x="413.9" y="150.7" text-anchor="start" font-size="10">54t</text>
<circle cx="427.4" cy="158.7" r="5" fill="#58a6ff" class="point"/>
<text x="435.4" y="150.7" text-anchor="start" font-size="10">48t</text>
<circle cx="446.4" cy="158.7" r="5" fill="#58a6ff" class="point"/>
<text x="454.4" y="150.7" text-anchor="start" font-size="10">42t</text>
<circle cx="463.4" cy="180.9" r="5" fill="#58a6ff" class="point"/>
<text x="471.4" y="172.9" text-anchor="start" font-size="10">38t</text>
<circle cx="517.7" cy="158.7" r="5" fill="#58a6ff" class="point"/>
<text x="525.7" y="150.7" text-anchor="start" font-size="10">27t</text>
<circle cx="539.2" cy="180.9" r="5" fill="#58a6ff" class="point"/>
<text x="547.2" y="172.9" text-anchor="start" font-size="10">24t</text>
<circle cx="566.9" cy="180.9" r="5" fill="#58a6ff" class="point"/>
<text x="574.9" y="172.9" text-anchor="start" font-size="10">20t</text>
<circle cx="623.6" cy="200.2" r="5" fill="#58a6ff" class="point"/>
<text x="631.6" y="192.2" text-anchor="start" font-size="10">14t</text>
<circle cx="729.3" cy="231.9" r="5" fill="#58a6ff" class="point"/>
<text x="737.3" y="223.9" text-anchor="start" font-size="10">7t</text>
<circle cx="940.0" cy="347.4" r="5" fill="#58a6ff" class="point"/>
<text x="948.0" y="339.4" text-anchor="start" font-size="10">2t</text>
<rect x="660" y="68" width="12" height="12" fill="#58a6ff"/>
<text x="680" y="78" font-size="11">192t — rh8-al316 (192 vCPU)</text>
</svg>
